:SAMPLES-PER-SECOND 30
:FULLY-SPECIFIED
:DEGREES
468
root  5.30887 37.1906 8.20126 35.5523 82.331 40.1803
RightUpLeg  23.2577 -5.83125 -9.71385
RightLeg  27.9769 10.7725 5.93792
RightFoot  -15.0713 0.345537 13.9189
RightToes  5.82063e-011 0 -3.6325e-017
Spine  6.97223 1.93159 1.62115
Spine1  4.50833 3.7386 -8.87728
HEad  -5.39102 1.38451 -0.286898
LeftShoulder1  -0.278636 4.23359 -32.0493
LeftArm  -5.03865 14.4065 -33.144
LeftForeArm  26.9289 -4.34567 -7.64194
LeftHand  -0.0169476 8.3065 1.07478
RightShoulder  -0.724078 -5.55458 28.6453
RightArm  15.6541 -2.51615 50.4087
RightForeArm  13.259 6.15189 8.42716
RightHand  -0.306124 1.69017 -5.17921
LeftUpLeg  -23.0806 4.4033 -9.1443
LeftLeg  27.0569 6.54075 3.95994
LeftFoot  0.84125 -0.772976 7.14982
LeftToes  1.54581e-011 7.46816e-011 -4.69922e-011
469
root  6.53863 37.3298 8.12616 36.464 81.2261 41.1032
RightUpLeg  17.0884 -4.29985 -11.1588
RightLeg  40.1621 9.39317 8.168
RightFoot  -5.16753 -0.798971 14.895
RightToes  5.82063e-011 0 -3.6325e-017
Spine  6.93369 2.00831 0.463834
Spine1  4.7736 3.67478 -9.28076
HEad  -4.71681 2.24826 -1.68621
LeftShoulder1  -0.320909 4.34066 -32.2135
LeftArm  -5.47762 12.2326 -34.86
LeftForeArm  24.5205 -4.29484 -7.58797
LeftHand  0.0378723 8.30668 3.15435
RightShoulder  -0.690383 -5.46708 28.4791
RightArm  16.3053 -2.89397 50.4675
RightForeArm  15.6204 3.511 8.77829
RightHand  -0.255218 1.08805 -4.75577
LeftUpLeg  -21.3521 4.29033 -10.0952
LeftLeg  27.8911 7.39799 4.57661
LeftFoot  -1.55827 -0.589407 6.98355
LeftToes  1.54581e-011 7.46816e-011 -4.69922e-011
470
root  7.67121 37.459 8.06751 39.0793 79.9514 44.2051
RightUpLeg  10.5006 -2.64651 -12.7116
RightLeg  51.7665 7.15954 9.18763
RightFoot  3.5108 -1.65435 12.7134
RightToes  5.82063e-011 0 -3.6325e-017
Spine  7.18356 1.85178 -2.1622
Spine1  5.55086 3.03296 -8.24804
HEad  -4.85483 3.87846 -2.93879
LeftShoulder1  -0.357825 4.43301 -32.3759
LeftArm  -5.81022 9.76254 -37.0631
LeftForeArm  22.9278 -4.78044 -7.62436
LeftHand  0.0874294 8.23385 5.01614
RightShoulder  -0.629741 -5.31124 28.1231
RightArm  16.0552 -3.72192 50.0546
RightForeArm  17.5696 4.55815 8.57073
RightHand  -0.247046 -0.304108 -5.60325
LeftUpLeg  -18.8788 4.46687 -11.4531
LeftLeg  27.8666 8.0757 4.96037
LeftFoot  -3.56391 -0.438898 6.76383
LeftToes  1.54581e-011 7.46816e-011 -4.69922e-011
471
root  8.7394 37.6807 8.00741 35.2578 79.4303 41.0329
RightUpLeg  4.35705 -1.19021 -12.6496
RightLeg  61.1257 3.78975 6.94427
RightFoot  2.00221 -1.32474 11.3787
RightToes  5.82063e-011 0 -3.6325e-017
Spine  7.78457 1.40763 -3.26473
Spine1  6.29694 2.1702 -7.30221
HEad  -5.42658 5.9475 -3.84144
LeftShoulder1  -0.34538 4.39908 -32.4361
LeftArm  -5.5839 7.39722 -39.0143
LeftForeArm  22.8305 -6.61971 -7.88903
LeftHand  0.0376278 7.90577 3.46173
RightShoulder  -0.630735 -5.32825 27.8566
RightArm  15.4895 -4.27877 49.253
RightForeArm  16.0401 6.93347 8.0745
RightHand  -0.298474 1.03461 -5.52181
LeftUpLeg  -15.9605 5.37317 -11.42
LeftLeg  27.2136 8.19719 4.90967
LeftFoot  -5.23819 -0.322845 6.64755
LeftToes  1.54581e-011 7.46816e-011 -4.69922e-011
472
root  9.79526 37.9416 7.94842 32.0723 79.6369 38.5033
RightUpLeg  -1.46645 -0.791079 -12.3753
RightLeg  67.5422 1.93132 4.50336
RightFoot  0.691773 -0.918982 8.76202
RightToes  5.82063e-011 0 -3.6325e-017
Spine  8.6492 0.674955 -4.10642
Spine1  6.34023 0.927408 -6.06124
HEad  -5.2076 7.49744 -4.37136
LeftShoulder1  -0.309263 4.31247 -32.1229
LeftArm  -3.68357 4.85861 -40.8687
LeftForeArm  21.4931 -8.63931 -8.42025
LeftHand  0.06606 8.36365 4.17952
RightShoulder  -0.638152 -5.36966 27.4897
RightArm  16.3966 -5.05208 48.2773
RightForeArm  11.8595 10.4903 7.44701
RightHand  -0.274181 1.6181 -4.67943
LeftUpLeg  -12.7405 6.1308 -10.9807
LeftLeg  25.9692 7.94719 4.55963
LeftFoot  -6.47875 -0.24945 6.78959
LeftToes  1.54581e-011 7.46816e-011 -4.69922e-011
473
root  10.8741 38.2039 7.94376 30.6098 80.4761 37.724
RightUpLeg  -6.44834 -0.715491 -11.6572
RightLeg  70.5756 1.03689 2.50389
RightFoot  -0.384658 -0.704499 7.30861
RightToes  5.82063e-011 0 -3.6325e-017
Spine  9.31773 -0.166585 -5.64645
Spine1  6.37955 -0.660431 -3.78616
HEad  -4.36419 9.23895 -4.26964
LeftShoulder1  -0.308518 4.31592 -31.8284
LeftArm  0.207678 2.37588 -42.4318
LeftForeArm  19.5247 -11.796 -8.39267
LeftHand  0.0505222 7.34804 4.92087
RightShoulder  -0.602653 -5.28238 27.152
RightArm  18.6949 -5.89442 47.3368
RightForeArm  5.84402 14.221 6.61609
RightHand  -0.338181 2.1766 -5.38264
LeftUpLeg  -9.23191 6.49914 -10.3109
LeftLeg  24.3524 7.34899 3.93951
LeftFoot  -7.53906 -0.183487 6.8797
LeftToes  1.54581e-011 7.46816e-011 -4.69922e-011
474
root  11.9412 38.4013 7.94618 29.1033 81.152 36.354
RightUpLeg  -11.5089 -0.57181 -10.8709
RightLeg  70.7163 0.807116 1.76395
RightFoot  -1.72006 -0.536139 6.22486
RightToes  5.82063e-011 0 -3.6325e-017
Spine  9.17873 -0.761487 -6.90493
Spine1  6.70231 -1.83267 -1.79969
HEad  -3.57636 10.6043 -4.27842
LeftShoulder1  -0.238726 4.13952 -31.4306
LeftArm  4.93831 -0.119623 -43.9583
LeftForeArm  16.6352 -15.5506 -7.20276
LeftHand  0.0243183 7.00316 4.10307
RightShoulder  -0.578496 -5.22761 26.8043
RightArm  19.9566 -6.67964 46.5566
RightForeArm  2.45252 17.8384 5.49238
RightHand  -0.334994 2.08771 -5.38153
LeftUpLeg  -6.43031 6.21449 -9.61709
LeftLeg  22.9365 7.27437 3.40004
LeftFoot  -8.69347 -0.104135 6.77217
LeftToes  1.54581e-011 7.46816e-011 -4.69922e-011
475
root  13.0133 38.57 7.95356 26.1547 81.4171 33.9343
RightUpLeg  -15.413 0.139052 -10.0046
RightLeg  67.8617 0.844414 1.58474
RightFoot  -2.40383 -0.405196 4.97236
RightToes  5.82063e-011 0 -3.6325e-017
Spine  9.77402 -0.989198 -7.67325
Spine1  6.41268 -2.4725 -0.262061
HEad  -3.09188 12.3848 -4.57492
LeftShoulder1  -0.277659 4.24215 -31.4409
LeftArm  11.2248 -2.7552 -44.7379
LeftForeArm  11.8322 -19.6195 -5.59017
LeftHand  0.00575317 6.31469 4.42734
RightShoulder  -0.567742 -5.21708 26.3694
RightArm  19.8425 -7.59283 46.0911
RightForeArm  1.36495 20.7193 4.87112
RightHand  -0.401876 2.68146 -5.98968
LeftUpLeg  -3.16732 6.40042 -8.87871
LeftLeg  21.3796 7.27653 2.7321
LeftFoot  -9.70061 -0.0387958 6.76993
LeftToes  1.54581e-011 7.46816e-011 -4.69922e-011
476
root  14.0923 38.6601 7.9681 24.4453 81.7895 32.8627
RightUpLeg  -18.1038 0.527221 -9.40273
RightLeg  62.3863 1.0946 1.75689
RightFoot  -3.18249 -0.373164 4.95259
RightToes  5.82063e-011 0 -3.6325e-017
Spine  10.3229 -1.24596 -7.78082
Spine1  6.36016 -2.7987 0.142621
HEad  -2.25652 12.1503 -3.51903
LeftShoulder1  -0.219563 4.09884 -30.7784
LeftArm  12.6213 -5.32154 -45.8518
LeftForeArm  10.7504 -22.4588 -4.54451
LeftHand  -0.00906527 5.75417 5.15831
RightShoulder  -0.61624 -5.33881 26.8614
RightArm  18.4991 -7.95159 45.5095
RightForeArm  2.06783 22.24 4.7616
RightHand  -0.465768 3.28832 -6.47001
LeftUpLeg  0.114638 6.36768 -8.33098
LeftLeg  20.0526 7.30861 2.24886
LeftFoot  -10.8884 0.0393226 6.67015
LeftToes  1.54581e-011 7.46816e-011 -4.69922e-011
477
root  15.1853 38.6859 8.00011 24.4468 82.4321 33.1426
RightUpLeg  -19.8125 0.280004 -8.90406
RightLeg  54.3598 1.4714 1.79361
RightFoot  -4.39601 -0.396324 6.01522
RightToes  5.82063e-011 0 -3.6325e-017
Spine  10.3332 -1.56848 -8.211
Spine1  6.58059 -3.32276 1.28823
HEad  -1.70081 11.3256 -3.29305
LeftShoulder1  -0.264059 4.21537 -30.9846
LeftArm  11.5704 -8.14172 -46.326
LeftForeArm  11.7665 -24.5589 -4.59907
LeftHand  -0.0272903 5.30326 5.60555
RightShoulder  -0.587732 -5.26925 26.5499
RightArm  17.8032 -7.95559 45.7215
RightForeArm  2.46223 22.5305 4.76678
RightHand  -0.486499 3.77201 -6.42245
LeftUpLeg  2.87361 6.63079 -7.76807
LeftLeg  19.0057 6.56467 1.62111
LeftFoot  -12.3102 0.131131 6.72009
LeftToes  1.54581e-011 7.46816e-011 -4.69922e-011
478
root  16.2958 38.6667 8.03008 25.6035 82.7079 34.4064
RightUpLeg  -20.7125 -0.195507 -8.60682
RightLeg  44.3023 2.27841 2.0895
RightFoot  -4.75376 -0.372252 5.90738
RightToes  5.82063e-011 0 -3.6325e-017
Spine  9.84277 -1.80979 -8.09962
Spine1  7.29531 -3.43254 1.44005
HEad  -1.52798 11.3032 -3.09684
LeftShoulder1  -0.249655 4.18016 -30.7686
LeftArm  10.3799 -10.914 -46.8791
LeftForeArm  12.5004 -26.145 -4.94839
LeftHand  -0.0347952 5.13654 6.23461
RightShoulder  -0.612732 -5.32712 26.8754
RightArm  17.3532 -7.48171 46.0719
RightForeArm  2.50124 21.5475 4.73023
RightHand  -0.497699 4.24102 -6.26964
LeftUpLeg  5.52533 6.70971 -7.57464
LeftLeg  17.7858 6.21478 1.17214
LeftFoot  -13.6138 0.214323 6.68565
LeftToes  1.54581e-011 7.46816e-011 -4.69922e-011
479
root  17.4278 38.6068 8.06122 28.3336 83.1595 37.0644
RightUpLeg  -20.4823 -0.977317 -8.21925
RightLeg  32.2494 2.95343 1.79911
RightFoot  -4.26292 -0.385965 5.76622
RightToes  5.82063e-011 0 -3.6325e-017
Spine  9.07121 -2.02663 -7.7079
Spine1  7.99376 -3.46444 1.55935
HEad  -1.65946 11.0552 -3.39621
LeftShoulder1  -0.162889 3.94763 -30.5837
LeftArm  9.80883 -13.3423 -47.5855
LeftForeArm  12.9712 -26.9395 -5.10218
LeftHand  -0.0503592 4.80281 5.93512
RightShoulder  -0.650289 -5.42576 27.1337
RightArm  17.7672 -6.98023 46.3987
RightForeArm  2.05354 19.8677 4.86452
RightHand  -0.46773 3.64727 -6.25671
LeftUpLeg  7.93653 6.75658 -7.47274
LeftLeg  16.7294 5.73986 0.866886
LeftFoot  -14.962 0.293671 6.42863
LeftToes  1.54581e-011 7.46816e-011 -4.69922e-011
480
root  18.5997 38.4941 8.08985 31.1819 83.2061 39.5511
RightUpLeg  -19.7357 -2.03176 -7.80391
RightLeg  19.389 3.67637 1.11516
RightFoot  -4.42772 -0.452738 6.98325
RightToes  5.82063e-011 0 -3.6325e-017
Spine  8.31276 -2.08413 -7.20538
Spine1  8.25298 -3.32145 1.68603
HEad  -1.862 11.1716 -3.6666
LeftShoulder1  -0.14161 3.89054 -30.486
LeftArm  9.24422 -14.9266 -48.5481
LeftForeArm  13.3962 -27.3409 -5.17045
LeftHand  -0.0578246 4.68585 6.24954
RightShoulder  -0.577841 -5.22644 26.7945
RightArm  16.9158 -7.34827 47.2023
RightForeArm  3.02222 18.1552 5.10258
RightHand  -0.449414 3.65083 -6.02426
LeftUpLeg  10.0922 6.85496 -7.55582
LeftLeg  15.6626 5.56434 0.573558
LeftFoot  -16.318 0.369948 6.25392
LeftToes  1.54581e-011 7.46816e-011 -4.69922e-011
481
root  19.8133 38.3667 8.14004 37.3413 83.7774 45.187
RightUpLeg  -18.7012 -5.28692 -6.7597
RightLeg  7.38855 5.19663 0.136517
RightFoot  -4.74983 -0.451686 7.26831
RightToes  5.82063e-011 0 -3.6325e-017
Spine  7.29191 -2.37819 -6.29088
Spine1  8.81612 -3.36299 1.47239
HEad  -1.94601 9.83885 -3.69495
LeftShoulder1  -0.117173 3.82633 -30.207
LeftArm  9.70991 -16.2044 -49.4171
LeftForeArm  12.986 -27.3687 -5.19909
LeftHand  -0.0703424 4.48052 6.61949
RightShoulder  -0.540033 -5.10585 26.9146
RightArm  16.5082 -7.83417 47.692
RightForeArm  3.84687 16.4091 5.52453
RightHand  -0.456505 3.89381 -5.96761
LeftUpLeg  12.1516 6.60489 -7.67993
LeftLeg  14.5547 4.92969 0.518017
LeftFoot  -17.5419 0.425863 5.90356
LeftToes  1.54581e-011 7.46816e-011 -4.69922e-011
